<svg xmlns="http://www.w3.org/2000/svg" width="512" height="512" viewBox="0 0 512 512" data-bbox="48 204.83601966754998 369.68762095311155 62.972721300342016" style="">
  <defs transform="matrix(0.6601564884185791, 0, 0, 0.6601564884185791, 87, 87)">
    <linearGradient x1="85.94%" y1="15.29%" x2="14.06%" y2="84.71%" id="o_f70bcbalh_3" gradientUnits="userSpaceOnUse">
      <stop offset="0%" stop-color="rgb(0, 242, 254)" stop-opacity="1.00" />
      <stop offset="0%" stop-color="rgb(3, 254, 248)" stop-opacity="1.00" />
      <stop offset="100%" stop-color="rgb(51, 156, 248)" stop-opacity="1.00" />
    </linearGradient>
  </defs>
  <rect data-fl-background="" x="0" y="0" width="512" height="512" fill="#ffffff" />
  <path text="LeadlyPro" fill="#0c2840" space="preserve" text-anchor="start" offset="0" font-scale="contain" font-size="40" font-family="Nunito" transform="matrix(1.4739248752593994, 0, 0, 1.4739248752593994, 173.17905241885654, 271.50567509514644)" font-style="normal" font-weight="400" letter-spacing="0" data-fl-textpath="" d="M 5.08 0Q 4.4 0  3.94-0.42Q 3.48-0.84  3.48-1.52L 3.48-1.52L 3.48-26.72Q 3.48-27.48  3.92-27.94Q 4.36-28.4  5.12-28.4L 5.12-28.4Q 5.88-28.4  6.32-27.94Q 6.76-27.48  6.76-26.72L 6.76-26.72L 6.76-2.8L 19.68-2.8Q 20.4-2.8  20.8-2.44Q 21.2-2.08  21.2-1.4L 21.2-1.4Q 21.2-0.72  20.8-0.36Q 20.4 0  19.68 0L 19.68 0L 5.08 0ZM 39.64-4.52Q 40.08-4.52  40.4-4.16Q 40.72-3.8  40.72-3.24L 40.72-3.24Q 40.72-2.24  39.32-1.4L 39.32-1.4Q 37.88-0.56  36.28-0.14Q 34.68 0.28  33.16 0.28L 33.16 0.28Q 28.64 0.28  26.02-2.4Q 23.4-5.08  23.4-9.8L 23.4-9.8Q 23.4-12.8  24.56-15.1Q 25.72-17.4  27.82-18.68Q 29.92-19.96  32.6-19.96L 32.6-19.96Q 36.4-19.96  38.64-17.48Q 40.88-15  40.88-10.76L 40.88-10.76Q 40.88-9.96  40.56-9.6Q 40.24-9.24  39.52-9.24L 39.52-9.24L 26.64-9.24Q 27-2.36  33.16-2.36L 33.16-2.36Q 34.72-2.36  35.84-2.78Q 36.96-3.2  38.24-3.92L 38.24-3.92Q 39.28-4.52  39.64-4.52L 39.64-4.52ZM 32.64-17.44Q 30.08-17.44  28.54-15.84Q 27-14.24  26.72-11.32L 26.72-11.32L 38.04-11.32Q 37.96-14.28  36.56-15.86Q 35.16-17.44  32.64-17.44L 32.64-17.44ZM 53.6-19.96Q 60.92-19.96  60.92-12.28L 60.92-12.28L 60.92-1.4Q 60.92-0.68  60.5-0.24Q 60.08 0.2  59.36 0.2L 59.36 0.2Q 58.64 0.2  58.2-0.24Q 57.76-0.68  57.76-1.4L 57.76-1.4L 57.76-3.32Q 57-1.6  55.44-0.66Q 53.88 0.28  51.84 0.28L 51.84 0.28Q 49.96 0.28  48.38-0.48Q 46.8-1.24  45.88-2.6Q 44.96-3.96  44.96-5.6L 44.96-5.6Q 44.96-7.8  46.08-9.02Q 47.2-10.24  49.76-10.78Q 52.32-11.32  56.88-11.32L 56.88-11.32L 57.76-11.32L 57.76-12.64Q 57.76-15.04  56.78-16.16Q 55.8-17.28  53.6-17.28L 53.6-17.28Q 50.88-17.28  48.08-15.8L 48.08-15.8Q 47-15.12  46.56-15.12L 46.56-15.12Q 46.08-15.12  45.76-15.48Q 45.44-15.84  45.44-16.4L 45.44-16.4Q 45.44-16.96  45.78-17.38Q 46.12-17.8  46.88-18.24L 46.88-18.24Q 48.28-19.04  50.06-19.5Q 51.84-19.96  53.6-19.96L 53.6-19.96ZM 52.28-2.28Q 54.68-2.28  56.22-3.9Q 57.76-5.52  57.76-8.08L 57.76-8.08L 57.76-9.24L 57.04-9.24Q 53.52-9.24  51.68-8.94Q 49.84-8.64  49.06-7.94Q 48.28-7.24  48.28-5.88L 48.28-5.88Q 48.28-4.32  49.42-3.3Q 50.56-2.28  52.28-2.28L 52.28-2.28ZM 82.48-28.4Q 83.24-28.4  83.68-27.96Q 84.12-27.52  84.12-26.84L 84.12-26.84L 84.12-1.4Q 84.12-0.68  83.68-0.24Q 83.24 0.2  82.48 0.2L 82.48 0.2Q 81.72 0.2  81.3-0.24Q 80.88-0.68  80.88-1.4L 80.88-1.4L 80.88-3.56Q 80-1.72  78.3-0.72Q 76.6 0.28  74.32 0.28L 74.32 0.28Q 71.76 0.28  69.8-1Q 67.84-2.28  66.76-4.58Q 65.68-6.88  65.68-9.92L 65.68-9.92Q 65.68-12.92  66.76-15.2Q 67.84-17.48  69.8-18.72Q 71.76-19.96  74.32-19.96L 74.32-19.96Q 76.6-19.96  78.3-18.96Q 80-17.96  80.88-16.12L 80.88-16.12L 80.88-26.84Q 80.88-27.56  81.3-27.98Q 81.72-28.4  82.48-28.4L 82.48-28.4ZM 74.96-2.4Q 77.8-2.4  79.34-4.34Q 80.88-6.28  80.88-9.84L 80.88-9.84Q 80.88-13.4  79.34-15.32Q 77.8-17.24  74.96-17.24L 74.96-17.24Q 72.12-17.24  70.54-15.32Q 68.96-13.4  68.96-9.92L 68.96-9.92Q 68.96-6.36  70.54-4.38Q 72.12-2.4  74.96-2.4L 74.96-2.4ZM 91.76 0.2Q 91.04 0.2  90.58-0.22Q 90.12-0.64  90.12-1.4L 90.12-1.4L 90.12-26.8Q 90.12-27.56  90.58-27.98Q 91.04-28.4  91.76-28.4L 91.76-28.4Q 92.44-28.4  92.9-27.98Q 93.36-27.56  93.36-26.8L 93.36-26.8L 93.36-1.4Q 93.36-0.64  92.9-0.22Q 92.44 0.2  91.76 0.2L 91.76 0.2ZM 113.44-18.88Q 113.88-19.84  114.84-19.84L 114.84-19.84Q 115.44-19.84  115.92-19.44Q 116.4-19.04  116.4-18.44L 116.4-18.44Q 116.4-18.08  116.24-17.8L 116.24-17.8L 105 6.44Q 104.8 6.88  104.42 7.12Q 104.04 7.36  103.64 7.36L 103.64 7.36Q 103.04 7.36  102.58 6.98Q 102.12 6.6  102.12 6L 102.12 6Q 102.12 5.68  102.28 5.36L 102.28 5.36L 105.08-0.68L 97.16-17.8Q 97-18.08  97-18.4L 97-18.4Q 97-19  97.54-19.44Q 98.08-19.88  98.72-19.88L 98.72-19.88Q 99.12-19.88  99.5-19.64Q 99.88-19.4  100.08-18.96L 100.08-18.96L 106.76-3.96L 113.44-18.88ZM 122.08 0.2Q 121.32 0.2  120.88-0.26Q 120.44-0.72  120.44-1.48L 120.44-1.48L 120.44-26.6Q 120.44-27.32  120.9-27.76Q 121.36-28.2  122.12-28.2L 122.12-28.2L 131.6-28.2Q 136.04-28.2  138.5-26.04Q 140.96-23.88  140.96-19.92L 140.96-19.92Q 140.96-15.96  138.48-13.76Q 136-11.56  131.6-11.56L 131.6-11.56L 123.72-11.56L 123.72-1.48Q 123.72-0.72  123.28-0.26Q 122.84 0.2  122.08 0.2L 122.08 0.2ZM 123.72-14.28L 131.28-14.28Q 137.72-14.28  137.72-19.92L 137.72-19.92Q 137.72-25.48  131.28-25.48L 131.28-25.48L 123.72-25.48L 123.72-14.28ZM 155-19.88Q 156.68-20  156.68-18.52L 156.68-18.52Q 156.68-17.88  156.32-17.5Q 155.96-17.12  155.08-17.04L 155.08-17.04L 153.88-16.92Q 151.2-16.68  149.9-15.02Q 148.6-13.36  148.6-11.12L 148.6-11.12L 148.6-1.4Q 148.6-0.6  148.16-0.2Q 147.72 0.2  147 0.2L 147 0.2Q 146.28 0.2  145.82-0.22Q 145.36-0.64  145.36-1.4L 145.36-1.4L 145.36-18.28Q 145.36-19.04  145.84-19.46Q 146.32-19.88  147-19.88L 147-19.88Q 147.64-19.88  148.08-19.46Q 148.52-19.04  148.52-18.32L 148.52-18.32L 148.52-16.08Q 149.36-17.84  150.9-18.76Q 152.44-19.68  154.44-19.84L 154.44-19.84L 155-19.88ZM 167.16 0.28Q 164.4 0.28  162.3-0.96Q 160.2-2.2  159.06-4.5Q 157.92-6.8  157.92-9.84L 157.92-9.84Q 157.92-12.88  159.06-15.18Q 160.2-17.48  162.3-18.72Q 164.4-19.96  167.16-19.96L 167.16-19.96Q 169.92-19.96  172.04-18.72Q 174.16-17.48  175.3-15.18Q 176.44-12.88  176.44-9.84L 176.44-9.84Q 176.44-6.8  175.3-4.5Q 174.16-2.2  172.04-0.96Q 169.92 0.28  167.16 0.28L 167.16 0.28ZM 167.16-2.4Q 170.04-2.4  171.58-4.3Q 173.12-6.2  173.12-9.84L 173.12-9.84Q 173.12-13.4  171.56-15.34Q 170-17.28  167.16-17.28L 167.16-17.28Q 164.32-17.28  162.76-15.34Q 161.2-13.4  161.2-9.84L 161.2-9.84Q 161.2-6.24  162.74-4.32Q 164.28-2.4  167.16-2.4L 167.16-2.4Z" />
  <g transform="matrix(0.1620665192604065, 0, 0, 0.1620665192604065, 78.76159483829014, 214.51121403557616)" fill="url(#o_f70bcbalh_3)">
    <path d="M75.705 158.503c-2.88-0.508-5.815-0.765-8.723-0.765c-24.287 0-44.978 17.379-49.2 41.323L0.765 295.572&#xA;&#x9;&#x9;&#x9;c-4.788 27.151 13.407 53.135 40.558 57.923c2.88 0.508 5.815 0.765 8.723 0.765c24.285 0 44.978-17.38 49.2-41.323l17.018-96.511&#xA;&#x9;&#x9;&#x9;C121.05 189.274 102.856 163.291 75.705 158.503z" transform="matrix(1, 0, 0, 1, 0, 0)" fill="url(#o_f70bcbalh_3)" />
    <path d="M215.176 114.187c-2.88-0.508-5.815-0.765-8.723-0.765c-24.286 0-44.978 17.379-49.199 41.323l-32.646 185.144&#xA;&#x9;&#x9;&#x9;c-2.319 13.152 0.623 26.421 8.283 37.361c7.66 10.939 19.123 18.242 32.275 20.562c2.88 0.508 5.815 0.765 8.723 0.765&#xA;&#x9;&#x9;&#x9;c24.286 0 44.978-17.38 49.2-41.323l32.646-185.144C260.522 144.958 242.327 118.975 215.176 114.187z" transform="matrix(1, 0, 0, 1, 0, 0)" fill="url(#o_f70bcbalh_3)" />
    <path d="M386.922 83.046c-7.661-10.94-19.123-18.242-32.274-20.562c-2.881-0.508-5.817-0.766-8.726-0.766&#xA;&#x9;&#x9;&#x9;c-24.285 0-44.976 17.379-49.198 41.324L245.845 391.59c-2.319 13.152 0.623 26.421 8.283 37.361&#xA;&#x9;&#x9;&#x9;c7.661 10.939 19.123 18.242 32.274 20.562c2.88 0.508 5.815 0.766 8.725 0.766c24.287 0 44.977-17.38 49.199-41.324&#xA;&#x9;&#x9;&#x9;l50.879-288.548C397.524 107.255 394.583 93.986 386.922 83.046z" transform="matrix(1, 0, 0, 1, 0, 0)" fill="url(#o_f70bcbalh_3)" />
    <path d="M470.675 158.503c-2.88-0.508-5.815-0.765-8.723-0.765c-24.287 0-44.978 17.379-49.2 41.323l-17.018 96.511&#xA;&#x9;&#x9;&#x9;c-4.788 27.151 13.407 53.135 40.558 57.923c2.88 0.508 5.815 0.765 8.723 0.765c24.285 0 44.978-17.38 49.2-41.323l17.018-96.511&#xA;&#x9;&#x9;&#x9;C516.021 189.274 497.827 163.291 470.675 158.503z" transform="matrix(1, 0, 0, 1, 0, 0)" fill="url(#o_f70bcbalh_3)" />
  </g>
</svg>